# 3ds Max Wavefront OBJ Exporter v0.99 - (c)2007 guruware
# File Created: 02.03.2022 16:09:40

mtllib SM_Socle_01.mtl

#
# object SM_Socle_01
#

v  -28.5633 -0.8045 -0.0000
v  -20.2472 -0.8045 19.9826
v  0.3766 -0.8045 28.3145
v  0.3766 -0.8045 -0.0000
v  21.0004 -0.8045 19.9826
v  29.3166 -0.8045 -0.0000
v  -20.7882 -0.8045 -19.9826
v  0.3766 -0.8045 -28.3145
v  21.5415 -0.8045 -19.9826
v  29.7520 0.5749 0.0000
v  21.0379 0.5749 -21.0379
v  20.6474 0.7262 -20.6474
v  29.1999 0.7262 -0.0000
v  27.9010 0.0000 -0.0000
v  19.7290 0.0000 -19.7290
v  19.7290 -1.6500 -19.7290
v  27.9010 -1.6500 -0.0000
v  21.5659 -1.6500 -21.5659
v  30.4987 -1.6500 0.0000
v  21.5659 0.0000 -21.5659
v  30.4987 0.0000 0.0000
v  0.0000 0.5749 -29.7520
v  -0.0000 0.7262 -29.1999
v  -0.0000 0.0000 -27.9010
v  -0.0000 -1.6500 -27.9010
v  0.0000 -1.6500 -30.4987
v  0.0000 0.0000 -30.4987
v  -21.0379 0.5749 -21.0379
v  -20.6474 0.7262 -20.6474
v  -19.7290 0.0000 -19.7290
v  -19.7290 -1.6500 -19.7290
v  -21.5659 -1.6500 -21.5659
v  -21.5659 0.0000 -21.5659
v  -29.7520 0.5749 -0.0000
v  -29.1999 0.7262 0.0000
v  -27.9010 0.0000 0.0000
v  -27.9010 -1.6500 0.0000
v  -30.4987 -1.6500 -0.0000
v  -30.4987 0.0000 -0.0000
v  -21.0379 0.5749 21.0379
v  -20.6474 0.7262 20.6474
v  -19.7290 0.0000 19.7290
v  -19.7290 -1.6500 19.7290
v  -21.5659 -1.6500 21.5659
v  -21.5659 0.0000 21.5659
v  -0.0000 0.5749 29.7520
v  0.0000 0.7262 29.1999
v  0.0000 0.0000 27.9010
v  0.0000 -1.6500 27.9010
v  -0.0000 -1.6500 30.4987
v  -0.0000 0.0000 30.4987
v  21.0379 0.5749 21.0379
v  20.6474 0.7262 20.6474
v  19.7290 0.0000 19.7290
v  19.7290 -1.6500 19.7290
v  21.5659 -1.6500 21.5659
v  21.5659 0.0000 21.5659
v  28.6477 0.5749 -0.0000
v  20.2570 0.5749 -20.2570
v  20.2570 0.5749 20.2570
v  0.0000 0.5749 28.6477
v  -20.2570 0.5749 20.2570
v  -28.6477 0.5749 0.0000
v  -20.2570 0.5749 -20.2570
v  -0.0000 0.5749 -28.6477
# 65 vertices

vn 0.0000 1.0000 -0.0000
vn 0.4824 0.8759 0.0000
vn 0.3411 0.8759 -0.3411
vn 0.0465 0.9978 -0.0465
vn 0.0658 0.9978 -0.0000
vn -0.8713 0.4908 0.0000
vn -0.6161 0.4908 0.6161
vn -0.4203 -0.8042 0.4203
vn -0.5944 -0.8042 0.0000
vn 0.5490 -0.6303 -0.5490
vn 0.7764 -0.6303 -0.0000
vn 0.6469 0.4037 -0.6469
vn 0.9149 0.4037 -0.0000
vn 0.0000 0.8759 -0.4824
vn -0.0000 0.9978 -0.0658
vn 0.0000 0.4908 0.8713
vn 0.0000 -0.8042 0.5944
vn 0.0000 -0.6303 -0.7764
vn 0.0000 0.4037 -0.9149
vn -0.3411 0.8759 -0.3411
vn -0.0465 0.9978 -0.0465
vn 0.6161 0.4908 0.6161
vn 0.4203 -0.8042 0.4203
vn -0.5490 -0.6303 -0.5490
vn -0.6469 0.4037 -0.6469
vn -0.4824 0.8759 -0.0000
vn -0.0658 0.9978 0.0000
vn 0.8713 0.4908 -0.0000
vn 0.5944 -0.8042 -0.0000
vn -0.7764 -0.6303 0.0000
vn -0.9149 0.4037 0.0000
vn -0.3411 0.8759 0.3411
vn -0.0465 0.9978 0.0465
vn 0.6161 0.4908 -0.6161
vn 0.4203 -0.8042 -0.4203
vn -0.5490 -0.6303 0.5490
vn -0.6469 0.4037 0.6469
vn -0.0000 0.8759 0.4824
vn 0.0000 0.9978 0.0658
vn -0.0000 0.4908 -0.8713
vn -0.0000 -0.8042 -0.5944
vn 0.0000 -0.6303 0.7764
vn 0.0000 0.4037 0.9149
vn 0.3411 0.8759 0.3411
vn 0.0465 0.9978 0.0465
vn -0.6161 0.4908 -0.6161
vn -0.4203 -0.8042 -0.4203
vn 0.5490 -0.6303 0.5490
vn 0.6469 0.4037 0.6469
vn -0.4054 0.9141 0.0000
vn -0.2867 0.9141 0.2867
vn -0.2867 0.9141 -0.2867
vn -0.0000 0.9141 -0.4054
vn 0.2867 0.9141 -0.2867
vn 0.4054 0.9141 -0.0000
vn 0.2867 0.9141 0.2867
vn 0.0000 0.9141 0.4054
# 57 vertex normals

vt 0.0075 0.3337 0.0000
vt 0.0839 0.1501 0.0000
vt 0.2735 0.0735 0.0000
vt 0.2735 0.3337 0.0000
vt 0.4630 0.1501 0.0000
vt 0.5394 0.3337 0.0000
vt 0.0789 0.5174 0.0000
vt 0.2735 0.5940 0.0000
vt 0.4680 0.5174 0.0000
vt 0.3221 0.0483 -0.1738
vt 0.2093 0.0483 -0.1738
vt 0.2093 0.0368 -0.1738
vt 0.3221 0.0368 -0.1738
vt 0.3221 0.0153 -0.1738
vt 0.2093 0.0153 -0.1738
vt 0.2093 0.0083 -0.1738
vt 0.3221 0.0083 -0.1738
vt 0.5490 0.0005 11.3935
vt 0.7178 0.0005 -11.3935
vt 0.7178 0.0067 11.3935
vt 0.5490 0.0067 -11.3935
vt 0.3221 0.0707 -0.1738
vt 0.2093 0.0707 -0.1738
vt 0.2093 0.0597 -0.1738
vt 0.3221 0.0597 -0.1738
vt 0.0946 0.0483 -0.1738
vt 0.0946 0.0368 0.1738
vt 0.0946 0.0153 -0.1738
vt 0.0946 0.0083 -0.1738
vt 0.9995 0.0005 11.3935
vt 0.9995 0.0067 11.3935
vt 0.0946 0.0707 -0.1738
vt 0.0946 0.0597 -0.1738
vt 0.9952 0.0483 -0.1738
vt 0.8863 0.0483 -0.1738
vt 0.8863 0.0368 -0.1738
vt 0.9952 0.0368 0.1738
vt 0.9952 0.0153 -0.1738
vt 0.8863 0.0153 -0.1738
vt 0.8863 0.0083 -0.1738
vt 0.9952 0.0083 -0.1738
vt 0.0005 0.0005 11.3935
vt 0.0548 0.0005 11.3935
vt 0.0548 0.0067 11.3935
vt 0.0005 0.0067 11.3935
vt 0.9952 0.0707 -0.1738
vt 0.8863 0.0707 -0.1738
vt 0.8863 0.0597 -0.1738
vt 0.9952 0.0597 -0.1738
vt 0.7740 0.0483 -0.1738
vt 0.7740 0.0368 -0.1738
vt 0.7740 0.0153 -0.1738
vt 0.7740 0.0083 -0.1738
vt 0.1083 0.0005 11.3935
vt 0.1083 0.0067 11.3935
vt 0.7740 0.0707 -0.1738
vt 0.7740 0.0597 -0.1738
vt 0.6606 0.0483 -0.1738
vt 0.6606 0.0368 -0.1738
vt 0.6606 0.0153 -0.1738
vt 0.6606 0.0083 -0.1738
vt 0.1618 0.0005 11.3935
vt 0.1618 0.0067 11.3935
vt 0.6606 0.0711 -0.1738
vt 0.6606 0.0597 -0.1738
vt 0.5479 0.0483 -0.1738
vt 0.5479 0.0368 -0.1738
vt 0.5479 0.0153 -0.1738
vt 0.5479 0.0083 -0.1738
vt 0.2153 0.0005 11.3935
vt 0.2153 0.0067 11.3935
vt 0.5479 0.0711 -0.1738
vt 0.5479 0.0597 -0.1738
vt 0.4351 0.0483 -0.1738
vt 0.4351 0.0368 -0.1738
vt 0.4351 0.0153 -0.1738
vt 0.4351 0.0083 -0.1738
vt 0.3821 0.0005 11.3935
vt 0.3821 0.0067 11.3935
vt 0.4351 0.0707 -0.1738
vt 0.4351 0.0597 -0.1738
vt 0.3221 0.0253 -0.1738
vt 0.2093 0.0253 -0.1738
vt 0.4351 0.0253 -0.1738
vt 0.5479 0.0253 -0.1738
vt 0.6606 0.0253 -0.1738
vt 0.7740 0.0253 -0.1738
vt 0.8863 0.0253 -0.1738
vt 0.9952 0.0253 -0.1738
vt 0.0946 0.0253 -0.1738
# 90 texture coords

o SM_Socle_01
g SM_Socle_01
usemtl wire_086086086
s 1
f 1/1/1 2/2/1 3/3/1 4/4/1 
f 4/4/1 3/3/1 5/5/1 6/6/1 
f 7/7/1 1/1/1 4/4/1 8/8/1 
f 8/8/1 4/4/1 6/6/1 9/9/1 
f 10/10/2 11/11/3 12/12/4 13/13/5 
s 2
f 14/14/6 15/15/7 16/16/8 17/17/9 
s 1
f 17/18/9 16/19/8 18/20/10 19/21/11 
s 2
f 19/22/11 18/23/10 20/24/12 21/25/13 
s 1
f 11/11/3 22/26/14 23/27/15 12/12/4 
s 4
f 15/15/7 24/28/16 25/29/17 16/16/8 
s 1
f 16/19/8 25/30/17 26/31/18 18/20/10 
s 4
f 18/23/10 26/32/18 27/33/19 20/24/12 
s 1
f 22/34/14 28/35/20 29/36/21 23/37/15 
s 2
f 24/38/16 30/39/22 31/40/23 25/41/17 
s 1
f 25/42/17 31/43/23 32/44/24 26/45/18 
s 2
f 26/46/18 32/47/24 33/48/25 27/49/19 
s 1
f 28/35/20 34/50/26 35/51/27 29/36/21 
s 4
f 30/39/22 36/52/28 37/53/29 31/40/23 
s 1
f 31/43/23 37/54/29 38/55/30 32/44/24 
s 4
f 32/47/24 38/56/30 39/57/31 33/48/25 
s 1
f 34/50/26 40/58/32 41/59/33 35/51/27 
s 2
f 36/52/28 42/60/34 43/61/35 37/53/29 
s 1
f 37/54/29 43/62/35 44/63/36 38/55/30 
s 2
f 38/56/30 44/64/36 45/65/37 39/57/31 
s 1
f 40/58/32 46/66/38 47/67/39 41/59/33 
s 4
f 42/60/34 48/68/40 49/69/41 43/61/35 
s 1
f 43/62/35 49/70/41 50/71/42 44/63/36 
s 4
f 44/64/36 50/72/42 51/73/43 45/65/37 
s 1
f 46/66/38 52/74/44 53/75/45 47/67/39 
s 2
f 48/68/40 54/76/46 55/77/47 49/69/41 
s 1
f 49/70/41 55/78/47 56/79/48 50/71/42 
s 2
f 50/72/42 56/80/48 57/81/49 51/73/43 
s 1
f 52/74/44 10/10/2 13/13/5 53/75/45 
s 4
f 54/76/46 14/14/6 17/17/9 55/77/47 
s 1
f 55/78/47 17/18/9 19/21/11 56/79/48 
s 4
f 56/80/48 19/22/11 21/25/13 57/81/49 
s off
f 21/25/13 20/24/12 11/11/3 10/10/2 
f 20/24/12 27/33/19 22/26/14 11/11/3 
f 27/49/19 33/48/25 28/35/20 22/34/14 
f 33/48/25 39/57/31 34/50/26 28/35/20 
f 39/57/31 45/65/37 40/58/32 34/50/26 
f 45/65/37 51/73/43 46/66/38 40/58/32 
f 51/73/43 57/81/49 52/74/44 46/66/38 
f 57/81/49 21/25/13 10/10/2 52/74/44 
f 15/15/7 14/14/6 58/82/50 59/83/51 
f 14/14/6 54/76/46 60/84/52 58/82/50 
f 54/76/46 48/68/40 61/85/53 60/84/52 
f 48/68/40 42/60/34 62/86/54 61/85/53 
f 42/60/34 36/52/28 63/87/55 62/86/54 
f 36/52/28 30/39/22 64/88/56 63/87/55 
f 30/39/22 24/38/16 65/89/57 64/88/56 
f 24/28/16 15/15/7 59/83/51 65/90/57 
s 1
f 12/12/4 59/83/51 58/82/50 13/13/5 
f 23/27/15 65/90/57 59/83/51 12/12/4 
f 29/36/21 64/88/56 65/89/57 23/37/15 
f 35/51/27 63/87/55 64/88/56 29/36/21 
f 41/59/33 62/86/54 63/87/55 35/51/27 
f 47/67/39 61/85/53 62/86/54 41/59/33 
f 53/75/45 60/84/52 61/85/53 47/67/39 
f 13/13/5 58/82/50 60/84/52 53/75/45 
# 60 polygons

